<svg width="223" height="109" viewBox="0 0 223 109" fill="none" xmlns="http://www.w3.org/2000/svg">
<defs>
    <linearGradient id="gold-gradient" x1="0%" y1="0%" x2="100%" y2="100%">
      <stop offset="0%" stop-color="#D4AF37" />
      <stop offset="50%" stop-color="#FFD700" />
      <stop offset="100%" stop-color="#DAA520" />
    </linearGradient>
  </defs>
<path d="M1.20319 25.8217L2.53097 14.0376C3.36762 6.61235 9.64786 1 17.1201 1H18.1204C21.5518 1 24.8293 2.42423 27.1706 4.93276C29.3101 7.2251 30.5 10.2439 30.5 13.3796V18.1754C30.5 21.9524 32.9169 25.3056 36.5 26.5C40.0831 27.6944 42.5 31.0476 42.5 34.8246V35.4777C42.5 41.4917 47.9258 46.0505 53.8498 45.0138L56.6851 44.5176C60.3549 43.8754 64.116 44.9597 66.8808 47.4569L69.8788 50.1647C70.0258 50.2975 70.0994 50.3639 70.1693 50.426C75.0893 54.787 81.8384 56.4515 88.2219 54.8781C88.3127 54.8557 88.4086 54.8311 88.6006 54.7819L89.7873 54.4776C90.0795 54.4027 90.2256 54.3652 90.3678 54.331C94.9645 53.2237 99.8048 53.7808 104.03 55.9033C104.16 55.9689 104.294 56.0385 104.561 56.1777L104.562 56.178L112.758 60.4469C113.087 60.6181 113.251 60.7038 113.41 60.7827C118.557 63.3487 124.559 63.5747 129.885 61.4032C130.049 61.3364 130.219 61.2634 130.559 61.1174L130.56 61.1173L133.602 59.8136C137.053 58.3345 140.981 58.3254 144.447 59.7695C151.387 62.6613 159.424 59.492 162.452 52.6101L165.635 45.376C166.942 42.4051 170.407 41.0532 173.381 42.3542C177.794 44.2847 182.53 40.3869 181.486 35.6851L180.358 30.6115C179.661 27.4751 182.048 24.5 185.261 24.5C187.709 24.5 189.801 22.7344 190.211 20.3207L191.631 11.9829C192.71 5.63992 198.207 1 204.641 1C210.488 1 215.638 4.84733 217.296 10.4543L221.095 23.297C221.239 23.7851 221.311 24.0291 221.373 24.2549C223.38 31.6756 220.956 39.5901 215.138 44.6144C214.961 44.7673 214.765 44.9291 214.372 45.2527L202.293 55.1996C200.525 56.6562 199.5 58.8274 199.5 61.1187C199.5 63.5588 198.339 65.8533 196.372 67.298L179.975 79.3448C176.74 81.7216 174.223 85.3854 172.981 89.2026C170.052 98.1984 161.113 103.386 151.774 101.875L141.771 100.257C136.852 99.4613 131.803 100.933 128.062 104.225C123.936 107.856 118.313 109.194 112.985 107.847L82.5374 100.147C79.5794 99.3994 76.232 99.6273 73.3565 100.648C66.8063 102.972 59.7437 100.549 55.7668 94.8491L52.2084 89.7488C49.2586 85.5207 44.1362 83 38.9807 83C30.2699 83 23.5 75.9389 23.5 67.228V65.3845C23.5 60.3687 21.3619 55.5894 17.6218 52.2472L8.01271 43.6603C7.71243 43.392 7.56229 43.2578 7.42251 43.128C2.86977 38.9007 0.540071 32.7977 1.11781 26.6119C1.13555 26.422 1.1581 26.2219 1.20318 25.8218L1.20319 25.8217Z" fill="url(#gold-gradient)" stroke="#D4AF37"/>
</svg>
